<?xml version="1.0" standalone="no"?>
<!DOCTYPE svg PUBLIC "-//W3C//DTD SVG 20010904//EN"
 "http://www.w3.org/TR/2001/REC-SVG-20010904/DTD/svg10.dtd">
<svg version="1.0" xmlns="http://www.w3.org/2000/svg"
 width="512.000000pt" height="512.000000pt" viewBox="0 0 512.000000 512.000000"
 preserveAspectRatio="xMidYMid meet">

<g transform="translate(0.000000,512.000000) scale(0.100000,-0.100000)"
fill="#000000" stroke="none">
<path d="M1766 5110 c-416 -66 -754 -363 -870 -764 -37 -127 -51 -275 -36
-398 52 -452 353 -804 790 -926 86 -24 111 -27 270 -27 198 0 273 15 430 84
484 212 741 761 594 1267 -105 363 -396 646 -759 740 -112 28 -315 40 -419 24z
m363 -231 c311 -78 563 -342 626 -658 23 -111 16 -294 -14 -399 -82 -282 -301
-502 -586 -588 -80 -24 -106 -27 -235 -27 -129 0 -155 3 -235 27 -232 70 -419
226 -525 437 -58 115 -81 204 -87 345 -11 248 64 449 236 627 213 222 522 311
820 236z"/>
<path d="M793 2545 c-201 -36 -365 -124 -513 -274 -129 -130 -211 -275 -257
-457 -16 -62 -18 -125 -18 -591 l0 -523 28 -27 27 -28 993 -3 c904 -3 995 -2
1023 13 58 31 73 112 30 162 l-24 28 -934 5 -933 5 0 425 c0 367 3 434 18 492
57 227 212 414 423 509 145 66 85 62 1230 69 1000 5 1043 6 1063 24 33 30 45
78 27 119 -29 71 38 67 -1093 66 -788 -1 -1034 -4 -1090 -14z"/>
<path d="M3645 2546 c-65 -21 -99 -42 -142 -89 -85 -92 -93 -132 -93 -477 l0
-270 -270 0 c-286 0 -349 -7 -416 -45 -57 -33 -118 -103 -140 -161 -16 -42
-19 -76 -19 -229 0 -168 2 -183 24 -233 29 -65 112 -143 178 -168 41 -16 89
-19 346 -22 l297 -3 0 -269 c0 -286 7 -349 45 -416 33 -57 103 -118 161 -140
42 -16 76 -19 229 -19 168 0 183 2 233 24 65 29 143 112 168 178 16 41 19 89
22 345 l3 297 297 3 c256 3 304 6 345 22 66 25 149 103 178 168 23 50 24 65
24 238 0 173 -1 188 -24 238 -29 65 -112 143 -178 168 -41 16 -89 19 -345 22
l-297 3 -3 297 c-5 342 -8 357 -89 446 -80 87 -120 100 -324 103 -119 2 -182
-1 -210 -11z m339 -210 c67 -28 66 -23 66 -404 0 -383 2 -396 65 -426 28 -14
84 -16 377 -16 381 0 376 1 404 -66 19 -45 19 -243 0 -288 -28 -67 -23 -66
-404 -66 -383 0 -396 -2 -426 -65 -14 -28 -16 -84 -16 -377 0 -381 1 -376 -66
-404 -45 -19 -243 -19 -288 0 -67 28 -66 23 -66 404 0 293 -2 349 -16 377 -30
63 -43 65 -426 65 -381 0 -376 -1 -404 66 -19 45 -19 243 0 288 28 67 23 66
404 66 293 0 349 2 377 16 63 30 65 43 65 426 0 379 -1 376 64 404 43 18 245
19 290 0z"/>
</g>
</svg>
