<?xml version="1.0" standalone="no"?>
<!DOCTYPE svg PUBLIC "-//W3C//DTD SVG 20010904//EN"
 "http://www.w3.org/TR/2001/REC-SVG-20010904/DTD/svg10.dtd">
<svg version="1.0" xmlns="http://www.w3.org/2000/svg"
 width="512.000000pt" height="512.000000pt" viewBox="0 0 512.000000 512.000000"
 preserveAspectRatio="xMidYMid meet">

<g transform="translate(0.000000,512.000000) scale(0.100000,-0.100000)"
fill="#000000" stroke="none">
<path d="M708 4986 c-70 -19 -125 -60 -156 -116 -22 -42 -34 -52 -67 -61 -152
-42 -270 -169 -304 -327 -7 -36 -11 -236 -11 -622 l0 -570 -85 0 -85 0 0 -128
c0 -220 38 -382 131 -562 147 -284 409 -503 727 -606 l80 -25 4 -167 c4 -142
8 -175 27 -224 32 -83 103 -143 191 -162 l26 -5 11 -173 c8 -120 20 -203 37
-271 102 -398 395 -705 776 -811 30 -9 99 -20 153 -26 577 -59 1094 396 1157
1019 6 63 10 447 10 980 0 841 1 881 20 955 67 265 285 446 535 446 138 0 251
-48 361 -152 52 -50 83 -90 112 -146 55 -106 72 -175 79 -328 l6 -130 -55 -13
c-139 -31 -276 -125 -357 -246 -175 -262 -119 -621 126 -804 256 -192 597
-162 808 72 214 236 203 590 -25 817 -80 81 -176 136 -276 159 l-51 12 -6 142
c-7 152 -22 231 -63 329 -86 204 -252 361 -454 428 -90 30 -260 38 -353 16
-256 -60 -456 -254 -548 -531 l-24 -70 -6 -980 c-6 -1046 -4 -1014 -55 -1170
-27 -81 -93 -205 -150 -280 -405 -539 -1175 -459 -1480 153 -74 150 -96 241
-101 434 l-6 167 29 6 c93 21 162 78 195 163 19 49 23 82 27 224 l4 167 80 25
c318 103 580 322 727 606 93 180 131 342 131 562 l0 128 -85 0 -85 0 0 548 c0
313 -5 577 -10 617 -14 93 -48 163 -112 231 -59 63 -112 97 -184 119 -43 13
-53 22 -79 67 -95 165 -347 155 -438 -16 -30 -58 -30 -174 0 -232 26 -49 80
-98 130 -119 49 -21 149 -19 199 4 44 20 110 82 120 113 13 41 101 -9 158 -90
26 -37 30 -53 37 -144 4 -57 8 -327 8 -600 l1 -498 -84 0 -83 0 -6 -137 c-7
-155 -23 -226 -73 -329 -154 -315 -547 -462 -909 -341 -179 59 -333 199 -409
370 -39 89 -56 184 -56 316 l0 121 -130 0 -131 0 3 588 3 587 30 55 c30 55
108 120 144 120 9 0 26 -18 39 -41 46 -80 165 -129 262 -108 168 36 255 220
175 368 -58 105 -176 158 -287 127z m120 -189 c50 -46 11 -137 -60 -137 -18 0
-41 6 -50 14 -48 36 -39 118 16 142 36 15 62 10 94 -19z m996 19 c35 -15 60
-62 49 -94 -22 -63 -94 -82 -138 -37 -50 49 -23 123 53 144 1 1 18 -5 36 -13z
m-1394 -1741 c0 -182 107 -413 256 -556 172 -163 351 -237 599 -246 199 -8
367 34 524 129 229 138 379 378 406 646 l7 72 85 0 86 0 -7 -76 c-36 -394
-310 -736 -704 -878 -289 -103 -658 -84 -924 50 -147 73 -299 201 -399 334
-97 129 -169 323 -185 494 l-7 76 132 0 131 0 0 -45z m4222 -490 c63 -18 146
-73 191 -126 183 -214 112 -543 -142 -663 -55 -25 -81 -31 -157 -34 -129 -6
-220 26 -308 107 -219 203 -166 566 101 693 103 49 201 56 315 23z m-3202
-763 c0 -127 -13 -192 -42 -219 -30 -27 -226 -27 -256 0 -29 27 -42 92 -42
219 l0 113 170 0 170 0 0 -113z"/>
<path d="M4467 2429 c-58 -14 -91 -34 -134 -83 -138 -157 -40 -399 168 -414
111 -8 192 35 242 125 36 67 43 126 24 194 -37 127 -174 208 -300 178z m82
-170 c88 -31 67 -158 -27 -159 -94 -1 -111 130 -22 163 8 3 15 6 16 6 1 1 15
-4 33 -10z"/>
</g>
</svg>
